<mxfile host="app.diagrams.net" modified="2023-07-17T09:35:31.602Z" agent="Mozilla/5.0 (X11; Linux x86_64) AppleWebKit/537.36 (KHTML, like Gecko) Chrome/92.0.4515.131 Safari/537.36" version="21.3.5" etag="1308UTl6jMGushgin5nG" type="github">
  <diagram name="Page-1" id="bOekSktgBoKV_WLydldh">
    <mxGraphModel>
      <root>
        <mxCell id="0" />
        <mxCell id="1" parent="0" />
      </root>
    </mxGraphModel>
  </diagram>
</mxfile>
